<svg width="18" height="18" viewBox="0 0 18 18" fill="none" xmlns="http://www.w3.org/2000/svg">
<path d="M16 1.75C16 1.61193 15.8881 1.5 15.75 1.5H1.75C1.61193 1.5 1.5 1.61193 1.5 1.75V3.8916C1.50007 3.95781 1.52642 4.02154 1.57324 4.06836L7.20996 9.7041C7.53815 10.0323 7.72266 10.4783 7.72266 10.9424V14.9385L9.77734 12.8838V10.9424C9.77734 10.4783 9.96185 10.0323 10.29 9.7041L15.9268 4.06836C15.9736 4.02154 15.9999 3.95781 16 3.8916V1.75ZM17.5 3.8916C17.4999 4.35564 17.3154 4.80078 16.9873 5.12891L11.3506 10.7656C11.304 10.8125 11.2773 10.8763 11.2773 10.9424V13.1943C11.2773 13.3931 11.199 13.584 11.0586 13.7246L7.50293 17.2803C7.28855 17.4947 6.9657 17.5592 6.68555 17.4434C6.40529 17.3273 6.22266 17.0533 6.22266 16.75V10.9424C6.22266 10.8763 6.19604 10.8125 6.14941 10.7656L0.512695 5.12891C0.184567 4.80078 6.87465e-05 4.35564 0 3.8916V1.75C0 0.783501 0.783502 0 1.75 0H15.75C16.7165 0 17.5 0.783502 17.5 1.75V3.8916Z" fill="#FAFCFF"/>
</svg>
