<svg width="13" height="13" viewBox="0 0 13 13" fill="none" xmlns="http://www.w3.org/2000/svg">
<path d="M12 6.5C12 3.46243 9.53757 1 6.5 1C3.46243 1 1 3.46243 1 6.5C1 9.53757 3.46243 12 6.5 12C9.53757 12 12 9.53757 12 6.5ZM6.5 6C6.77614 6 7 6.22386 7 6.5V8.66667H7.16667C7.44281 8.66667 7.66667 8.89052 7.66667 9.16667C7.66667 9.44281 7.44281 9.66667 7.16667 9.66667H6.5C6.22386 9.66667 6 9.44281 6 9.16667V7H5.83333C5.55719 7 5.33333 6.77614 5.33333 6.5C5.33333 6.22386 5.55719 6 5.83333 6H6.5ZM6.50651 3.33333C6.78265 3.33333 7.00651 3.55719 7.00651 3.83333C7.00651 4.10948 6.78265 4.33333 6.50651 4.33333H6.5C6.22386 4.33333 6 4.10948 6 3.83333C6 3.55719 6.22386 3.33333 6.5 3.33333H6.50651ZM13 6.5C13 10.0899 10.0899 13 6.5 13C2.91015 13 0 10.0899 0 6.5C0 2.91015 2.91015 0 6.5 0C10.0899 0 13 2.91015 13 6.5Z" fill="#5F6166"/>
</svg>
