<svg width="20" height="20" viewBox="0 0 20 20" fill="none" xmlns="http://www.w3.org/2000/svg">
<path d="M7.34545 1.89037C7.95735 -0.630125 11.5421 -0.630123 12.154 1.89037C12.3098 2.53122 13.0439 2.8351 13.6072 2.49193C15.8221 1.14235 18.3571 3.67739 17.0076 5.89233C16.6644 6.45556 16.9683 7.18969 17.6091 7.34545C20.1296 7.95735 20.1296 11.5421 17.6091 12.154C16.9683 12.3098 16.6644 13.0439 17.0076 13.6072C18.3571 15.8221 15.8221 18.3571 13.6072 17.0076C13.0439 16.6644 12.3098 16.9683 12.154 17.6091C11.5421 20.1296 7.95735 20.1296 7.34545 17.6091C7.18969 16.9683 6.45556 16.6644 5.89233 17.0076C3.67739 18.3571 1.14235 15.8221 2.49193 13.6072C2.8351 13.0439 2.53122 12.3098 1.89037 12.154C-0.630123 11.5421 -0.630125 7.95735 1.89037 7.34545C2.53122 7.18969 2.8351 6.45556 2.49193 5.89233C1.14235 3.67739 3.67739 1.14235 5.89233 2.49193C6.45557 2.8351 7.18969 2.53122 7.34545 1.89037ZM10.696 2.24389C10.455 1.25177 9.04446 1.25177 8.80346 2.24389C8.40821 3.87198 6.54283 4.64469 5.11205 3.77318C4.24002 3.24185 3.24185 4.24002 3.77318 5.11205C4.64469 6.54283 3.87198 8.40821 2.24389 8.80346C1.25177 9.04446 1.25177 10.455 2.24389 10.696C3.87198 11.0913 4.64469 12.9567 3.77318 14.3874C3.24185 15.2595 4.24002 16.2576 5.11205 15.7263C6.54283 14.8548 8.40821 15.6275 8.80346 17.2556C9.04446 18.2477 10.455 18.2477 10.696 17.2556C11.0913 15.6275 12.9567 14.8548 14.3874 15.7263C15.2595 16.2576 16.2576 15.2595 15.7263 14.3874C14.8548 12.9567 15.6275 11.0913 17.2556 10.696C18.2477 10.455 18.2477 9.04446 17.2556 8.80346C15.6275 8.40821 14.8548 6.54283 15.7263 5.11205C16.2576 4.24002 15.2595 3.24185 14.3874 3.77318C12.9567 4.64469 11.0913 3.87198 10.696 2.24389ZM11.9997 9.74975C11.9997 8.50711 10.9924 7.49975 9.74975 7.49975C8.50711 7.49975 7.49975 8.50711 7.49975 9.74975C7.49975 10.9924 8.50711 11.9997 9.74975 11.9997C10.9924 11.9997 11.9997 10.9924 11.9997 9.74975ZM13.4997 9.74975C13.4997 11.8208 11.8208 13.4997 9.74975 13.4997C7.67868 13.4997 5.99975 11.8208 5.99975 9.74975C5.99975 7.67868 7.67868 5.99975 9.74975 5.99975C11.8208 5.99975 13.4997 7.67868 13.4997 9.74975Z" fill="#FAFCFF"/>
</svg>
