<svg width="9" height="11" viewBox="0 0 9 11" fill="none" xmlns="http://www.w3.org/2000/svg">
<path d="M3.49994 0.75C3.49994 0.335787 3.83573 2.25254e-07 4.24994 0C4.66416 1.09729e-08 4.99994 0.335786 4.99994 0.75V7.93945L7.21967 5.71973C7.51256 5.42683 7.98732 5.42683 8.28022 5.71973C8.57311 6.01262 8.57311 6.48738 8.28022 6.78027L4.78022 10.2803C4.48732 10.5732 4.01256 10.5732 3.71967 10.2803L0.21967 6.78027C-0.0732233 6.48738 -0.0732232 6.01262 0.21967 5.71973C0.494274 5.44512 0.928995 5.42766 1.22358 5.66797L1.28022 5.71973L3.49994 7.93945V0.75Z" fill="#5F6166"/>
</svg>
